<svg width="105" height="96" viewBox="0 0 105 96" fill="none"
	xmlns="http://www.w3.org/2000/svg">
	<path d="M16.2842 87.8087V78.4829H23.6178V79.992H18.2367V82.335H23.214V83.8441H18.2367V86.2997H23.8891V87.8087H16.2842Z" fill="#050A30"/>
	<path d="M33.9977 87.8087L31.6547 84.0956L29.3116 87.8087H27.2466L30.4765 82.9042L27.518 78.4829H29.583L31.6547 81.7791L33.7263 78.4829H35.7782L32.9453 82.9042L36.0495 87.8087H33.9977Z" fill="#050A30"/>
	<path d="M43.9939 79.992V87.8087H42.0413V79.992H39.0298V78.4829H47.012V79.992H43.9939Z" fill="#050A30"/>
	<path d="M50.7734 87.8087V78.4829H52.726V87.8087H50.7734Z" fill="#050A30"/>
	<path d="M62.9284 87.8087L58.8645 80.6274C58.9439 81.3257 58.9836 81.885 58.9836 82.3086V87.8087H57.2495V78.4829H59.48L63.6035 85.7238C63.5241 85.0586 63.4844 84.4514 63.4844 83.9037V78.4829H65.2185V87.8087H62.9284Z" fill="#050A30"/>
	<path d="M74.1027 86.4056C75.2808 86.4056 76.0982 85.8149 76.5582 84.6318L78.2592 85.2738C77.8919 86.174 77.3541 86.8458 76.6443 87.2859C75.9377 87.7228 75.0905 87.9412 74.1027 87.9412C72.6019 87.9412 71.4419 87.5176 70.6212 86.6704C69.8038 85.8199 69.3967 84.6302 69.3967 83.1029C69.3967 81.5723 69.7905 80.3958 70.5815 79.5751C71.3708 78.7544 72.5158 78.344 74.0166 78.344C75.1104 78.344 76.0023 78.5657 76.6906 79.0059C77.379 79.4427 77.8621 80.088 78.1401 80.9385L76.4192 81.4085C76.2736 80.9419 75.9857 80.5712 75.5588 80.2965C75.1352 80.0185 74.6338 79.8795 74.0563 79.8795C73.1727 79.8795 72.5026 80.1542 72.0442 80.7003C71.5892 81.248 71.3625 82.0488 71.3625 83.1029C71.3625 84.1751 71.5958 84.9942 72.0641 85.5584C72.5357 86.1243 73.2158 86.4056 74.1027 86.4056Z" fill="#050A30"/>
	<path d="M86.4548 79.992V87.8087H84.5023V79.992H81.4907V78.4829H89.4729V79.992H86.4548Z" fill="#050A30"/>
	<path d="M42.0857 92.5636V93.9602H43.9258V94.2845H42.0857V95.7936H41.7151V92.2327H44.1508V92.5636H42.0857Z" fill="#7CA6B4"/>
	<path d="M48.1799 94.8405H46.1942L45.7706 95.7936H45.3801L47.0017 92.2327H47.3724L49.0006 95.7936H48.6035L48.1799 94.8405ZM48.0409 94.536L47.187 92.6298L46.3332 94.536H48.0409Z" fill="#7CA6B4"/>
	<path d="M52.0404 95.8267C51.5804 95.8267 51.2213 95.6943 50.9615 95.4295C50.705 95.1648 50.5776 94.7792 50.5776 94.2712V92.2327H50.9549V94.258C50.9549 94.6733 51.0476 94.9828 51.2329 95.1846C51.4182 95.3882 51.6863 95.4891 52.0404 95.4891C52.3978 95.4891 52.6692 95.3882 52.8545 95.1846C53.0398 94.9828 53.1325 94.6733 53.1325 94.258V92.2327H53.5031V94.2712C53.5031 94.7792 53.3741 95.1648 53.1192 95.4295C52.8628 95.6943 52.5037 95.8267 52.0404 95.8267Z" fill="#7CA6B4"/>
	<path d="M58.6251 92.2327V95.7936H58.3141L56.024 92.9078V95.7936H55.6533V92.2327H55.9578L58.2545 95.1251V92.2327H58.6251Z" fill="#7CA6B4"/>
	<path d="M63.0331 94.8405H61.0475L60.6239 95.7936H60.2334L61.855 92.2327H62.2256L63.8539 95.7936H63.4567L63.0331 94.8405ZM62.8941 94.536L62.0403 92.6298L61.1865 94.536H62.8941Z" fill="#7CA6B4"/>
	<mask id="mask0_52_16737" style="mask-type:luminance" maskUnits="userSpaceOnUse" x="0" y="0" width="52" height="64">
		<path d="M0 0H51.1498V63.5401H0V0Z" fill="white"/>
	</mask>
	<g mask="url(#mask0_52_16737)">
		<path fill-rule="evenodd" clip-rule="evenodd" d="M51.1431 46.1063H0.0065918L19.6875 63.5401H51.1431V46.1063ZM51.1431 0H0.0065918L19.6875 17.4322H51.1431V0ZM36.1831 23.0531H0.0065918L19.6875 40.487H40.5084V23.0531H36.1831Z" fill="#F2D49B"/>
	</g>
	<mask id="mask1_52_16737" style="mask-type:luminance" maskUnits="userSpaceOnUse" x="41" y="22" width="64" height="54">
		<path d="M41.46 22.7024H105V75.4241H41.46V22.7024Z" fill="white"/>
	</mask>
	<g mask="url(#mask1_52_16737)">
		<path fill-rule="evenodd" clip-rule="evenodd" d="M79.6599 54.1118V40.5598H90.7431L104.983 23.1492C99.1042 23.1492 93.2201 23.1492 87.3344 23.1492C79.7824 23.1492 80.4426 22.3682 74.8795 27.923L62.2311 40.5598H41.4763V23.1492H62.2311V75.4242L79.6599 54.1118Z" fill="#7CA6B4"/>
	</g>
</svg>
